<?xml version="1.0" encoding="UTF-8"?>
<svg id="Laag_1" xmlns="http://www.w3.org/2000/svg" viewBox="0 0 455.44 165.61">
  <defs>
    <style>
      .cls-1 {
        fill: #fff;
      }
    </style>
  </defs>
  <path class="cls-1" d="M13.12,21.24c0,2.81-6.55,19.15-7.92,26.28-.86,4.54-4.61,1.58-4.32-.79.5-3.6,4.9-15.91,5.69-19.66-1.87,2.3-5.54,6.41-6.34,7.06-.36.29-.22-.07-.07-.36,1.01-2.09,9.15-10.44,9.5-15.05.07-.43.58-.72,1.01-.43,2.09,1.44,2.45,1.87,2.45,2.95Z"/>
  <path class="cls-1" d="M36.01,45.51c0,1.01-2.95,1.08-5.62,1.3-2.52.22-5.18.72-7.49,1.15-3.67.72-6.62,1.73-8.28,1.73-1.94,0-2.74-2.45-2.74-3.38,0-.58,7.78-7.2,13.9-13.39,4.03-4.03,7.34-8.21,7.34-10.44,0-1.37-1.22-1.51-1.94-1.51-4.9,0-9.36,5.98-8.35,9.43-2.3-.43-3.74-2.52-3.74-5.11s4.97-7.42,11.45-7.42c5.47,0,6.41,4.39,6.41,5.91,0,7.42-13.61,14.98-21.82,21.82,4.97-1.51,12.89-3.31,15.7-3.31,3.1,0,5.18,2.59,5.18,3.24Z"/>
  <path class="cls-1" d="M74.96,19.3c-10.51,25.49-5.4,28.8-5.4,30.39,0,.58-.5.79-1.15.79-5.33,0-3.96-10.8-1.73-17.14-5.04,9.87-9.94,15.34-12.1,15.34s-4.75-2.02-4.75-7.06c0-7.63,7.56-17.14,12.39-17.14,2.02,0,3.89,1.3,5.18,2.66,1.22-2.45,2.3-4.9,3.31-7.27,3.46-8.5,6.41-15.84,5.62-17.93,5.98.29,4.25,3.74-1.37,17.35ZM66.32,29.16c-.5-.5-1.3-.86-2.66-.86-5.47,0-9.36,9.94-10.15,15.05-.29,1.8.29,2.38,1.08,2.38,1.58,0,7.06-7.63,11.74-16.56Z"/>
  <path class="cls-1" d="M93.25,49.25c0,.79-1.58.72-1.94.72-1.08,0-3.53-1.87-3.53-5.26,0-2.74.5-5.26,1.37-8.06-2.74,5.54-6.48,11.74-10.08,11.74-1.15,0-4.68-1.01-4.68-4.9,0-7.71,9.15-19.37,14.76-19.37,1.51,0,2.23,1.15,3.31,2.38.43-1.73.79-3.89,1.44-3.89,1.37,0,3.02,1.22,3.02,2.66s-3.53,6.91-4.97,14.04c-1.58,7.99,1.3,9.15,1.3,9.94ZM91.38,28.23c-.79-.5-1.8-.94-2.38-.94-2.95,0-10.3,10.87-10.8,16.2-.14,1.58.22,2.3.86,2.3,1.51,0,9.07-12.17,12.31-17.57Z"/>
  <path class="cls-1" d="M118.23,26.07c-.79,5.26-2.23,12.1-4.1,19.15,2.66-.65,2.45.29,1.01,1.01l-1.44.65c-4.68,17.07-12.03,34.92-20.81,34.92-4.97,0-8.86-2.95-8.86-8.64,0-12.74,16.2-22.61,25.99-26.57,1.44-5.18,2.66-10.44,3.6-15.27-3.82,7.49-10.37,16.99-12.02,16.99-2.38,0-3.96-2.23-3.96-5.04,0-3.82,4.61-15.48,5.4-19.15.22-1.01,4.1-.29,4.1,2.45s-8.64,19.15-5.98,19.15c1.73,0,12.75-16.99,13.97-21.31.43-1.51,3.38-.14,3.1,1.66ZM109.38,49.04c-12.39,6.48-22.9,15.12-22.9,24.92,0,2.66,1.08,5.04,4.75,5.04,7.49,0,13.68-14.47,18.15-29.96Z"/>
  <path class="cls-1" d="M143,33.92c-3.24,1.3-6.55,2.88-9.58,4.46,1.15.79,1.94,1.87,1.94,3.17,0,5.4-7.78,11.02-13.39,11.02-2.3,0-4.46-1.15-4.46-3.89,0-2.16,3.46-5.54,9-9-2.74-1.22-5.54-2.95-5.54-6.55,0-5.18,9.36-9.94,14.19-9.94,3.31,0,2.23,2.59,1.73,3.67-.22.43-.65.5-1.08.43-3.6-.72-11.95,2.66-11.95,5.9,0,1.51,4.03,2.38,7.34,3.89,3.46-1.73,7.49-3.46,11.81-4.9,1.73-.58.79,1.37,0,1.73ZM129.1,40.68c-4.9,2.95-8.42,5.83-8.42,7.85,0,.5.43,1.01,1.8,1.01,3.74,0,9.58-3.75,9.58-6.77,0-.86-1.22-1.44-2.95-2.09Z"/>
  <path class="cls-1" d="M168.99,20.31c-3.17,0-5.62.5-7.92,1.01-4.54,12.02-8.93,26.86-4.1,32.91.29.36.29,1.15-.94.94-1.66-.29-5.11-2.88-5.11-6.19,0-8.35,2.16-16.56,5.83-26.86-.5.07-1.08.07-1.66.07-2.23,0-3.89-3.02-4.18-4.18-.14-.58.36-.5,1.08-.07,1.01.65,2.95.94,4.61.94h1.3c1.01-2.81,2.16-5.69,3.31-8.79.65-1.73,3.89,1.22,3.1,3.1-.72,1.66-1.44,3.53-2.23,5.47,2.66-.14,5.04-.29,6.48,0,1.01.14.94,1.66.43,1.66Z"/>
  <path class="cls-1" d="M160.56,41.48c.14-8.86,8.42-18.22,11.52-18.22,1.73,0,4.75,1.37,6.05,3.6.22.36-.43.65-.86.36s-1.3-.79-2.16-.79c-5.26,0-9.58,10.51-10.37,14.91-.79,4.1-.07,5.69,1.08,5.69,4.25,0,8.78-10.44,9.43-14.26.22-1.44.29-2.59-.14-3.75-.29-.79,1.08-.86,1.94-.14,1.01.86,1.44,2.09,1.3,3.6-.65,8.86-7.85,16.92-12.46,16.92-2.38,0-5.4-1.87-5.33-7.92Z"/>
  <path class="cls-1" d="M192.6,42.34c0-14.18,12.96-36.15,22.83-36.15,6.55,0,9.29,9.79,6.48,14.76-1.8,3.24-5.4,2.95-4.68-.43,1.37-6.34,2.45-11.31-1.3-11.31-7.34,0-18.43,18-18.43,31.9,0,20.23,15.12,11.88,25.85-5.47.72-1.15,1.8-1.08,1.51.07-.5,1.8-5.18,10.73-8.93,14.47-9.43,9.43-23.33,7.42-23.33-7.85Z"/>
  <path class="cls-1" d="M246.96,53.21c-.65.79-1.87,1.44-3.31,1.44-9.07,0-8.71-12.03-3.17-28.73-9.65,10.44-11.88,21.53-13.46,21.53s-2.66-.43-3.82-1.22c-1.73-1.15,5.54-29.74,12.17-46.23,1.37.29,3.17,1.66,2.38,4.03-3.02,8.93-7.27,19.37-10.73,38.67,2.3-5.69,10.51-20.09,14.33-20.09,2.09,0,3.96.94,2.81,3.6-4.25,10.01-6.91,26.5,2.16,26.5.94,0,1.01,0,.65.5Z"/>
  <path class="cls-1" d="M266.76,29.38c-.29,2.88-3.31,4.39-4.32,4.39-.72,0-1.08-.72-.5-2.23,1.08-2.95,2.23-5.98.86-5.98-3.96,0-11.88,23.69-14.4,23.69-.5,0-1.87-.94-2.23-1.58-1.51-2.88,6.55-21.31,4.61-24.41,1.01,0,4.03,1.22,4.03,3.74,0,2.38-2.81,9.14-4.32,15.62,3.46-7.99,8.64-19.37,12.03-19.37,2.09,0,4.54,3.31,4.25,6.12Z"/>
  <path class="cls-1" d="M273.32,24.55c.72-1.37,1.08-1.73,1.44-1.73,1.44,0,2.81,1.73,2.23,3.31-1.3,3.46-9.5,19.95-3.96,19.95,3.53,0,7.85-7.85,8.42-9,.5-1.01,1.73-2.95.65.14-1.15,3.46-5.4,11.74-10.58,11.74-9.22,0,.94-22.75,1.8-24.41ZM276.84,16.99c0-1.73,1.73-5.54,2.66-5.54s2.59,1.51,2.59,2.74c0,1.8-2.74,4.1-4.1,4.1-.86,0-1.15-.79-1.15-1.3Z"/>
  <path class="cls-1" d="M303.48,33.92c-3.24,1.3-6.55,2.88-9.58,4.46,1.15.79,1.94,1.87,1.94,3.17,0,5.4-7.78,11.02-13.39,11.02-2.3,0-4.46-1.15-4.46-3.89,0-2.16,3.46-5.54,9-9-2.74-1.22-5.54-2.95-5.54-6.55,0-5.18,9.36-9.94,14.19-9.94,3.31,0,2.23,2.59,1.73,3.67-.22.43-.65.5-1.08.43-3.6-.72-11.95,2.66-11.95,5.9,0,1.51,4.03,2.38,7.34,3.89,3.46-1.73,7.49-3.46,11.81-4.9,1.73-.58.79,1.37,0,1.73ZM289.59,40.68c-4.9,2.95-8.42,5.83-8.42,7.85,0,.5.43,1.01,1.8,1.01,3.74,0,9.58-3.75,9.58-6.77,0-.86-1.22-1.44-2.95-2.09Z"/>
  <path class="cls-1" d="M317.96,20.31c-3.17,0-5.62.5-7.92,1.01-4.54,12.02-8.93,26.86-4.1,32.91.29.36.29,1.15-.94.94-1.66-.29-5.11-2.88-5.11-6.19,0-8.35,2.16-16.56,5.83-26.86-.5.07-1.08.07-1.66.07-2.23,0-3.89-3.02-4.18-4.18-.14-.58.36-.5,1.08-.07,1.01.65,2.95.94,4.61.94h1.3c1.01-2.81,2.16-5.69,3.31-8.79.65-1.73,3.89,1.22,3.1,3.1-.72,1.66-1.44,3.53-2.23,5.47,2.67-.14,5.04-.29,6.48,0,1.01.14.94,1.66.43,1.66Z"/>
  <path class="cls-1" d="M348.56,44.28c-1.94,5.76-5.83,9.36-8.5,9.36s-6.05-2.23-6.05-6.26c0-9,7.27-20.45,5.69-20.45-3.31,0-12.39,21.17-14.76,21.17-2.16,0-3.82-2.23-3.46-5.47.5-4.82,6.98-16.49,5.62-16.49-2.52,0-13.32,23.4-15.41,23.98-.94.29-2.95-.22-2.95-4.1,0-4.32,6.41-19.87,5.62-22.61,2.02.36,4.46,1.58,4.46,3.82,0,1.58-5.69,12.82-7.2,20.31,4.25-8.35,13.18-25.13,15.77-25.13,1.87,0,3.96,2.09,3.96,3.74,0,2.16-7.63,19.15-6.62,19.15s10.87-21.53,14.54-21.53c2.09,0,4.61,1.44,4.61,4.25s-9.43,23.19-3.82,23.19c2.16,0,5.47-4.18,7.92-7.71.43-.58.94-.36.58.79Z"/>
  <path class="cls-1" d="M365.69,49.25c0,.79-1.58.72-1.94.72-1.08,0-3.53-1.87-3.53-5.26,0-2.74.5-5.26,1.37-8.06-2.74,5.54-6.48,11.74-10.08,11.74-1.15,0-4.68-1.01-4.68-4.9,0-7.71,9.15-19.37,14.76-19.37,1.51,0,2.23,1.15,3.31,2.38.43-1.73.79-3.89,1.44-3.89,1.37,0,3.02,1.22,3.02,2.66s-3.53,6.91-4.97,14.04c-1.58,7.99,1.3,9.15,1.3,9.94ZM363.82,28.23c-.79-.5-1.8-.94-2.38-.94-2.95,0-10.3,10.87-10.8,16.2-.14,1.58.22,2.3.86,2.3,1.51,0,9.07-12.17,12.31-17.57Z"/>
  <path class="cls-1" d="M393.48,33.92c-3.24,1.3-6.55,2.88-9.58,4.46,1.15.79,1.94,1.87,1.94,3.17,0,5.4-7.78,11.02-13.39,11.02-2.3,0-4.46-1.15-4.46-3.89,0-2.16,3.46-5.54,9-9-2.74-1.22-5.54-2.95-5.54-6.55,0-5.18,9.36-9.94,14.18-9.94,3.31,0,2.23,2.59,1.73,3.67-.22.43-.65.5-1.08.43-3.6-.72-11.95,2.66-11.95,5.9,0,1.51,4.03,2.38,7.34,3.89,3.46-1.73,7.49-3.46,11.81-4.9,1.73-.58.79,1.37,0,1.73ZM379.59,40.68c-4.9,2.95-8.42,5.83-8.42,7.85,0,.5.43,1.01,1.8,1.01,3.74,0,9.58-3.75,9.58-6.77,0-.86-1.22-1.44-2.95-2.09Z"/>
  <path class="cls-1" d="M.95,128.74c0-14.19,12.96-36.15,22.83-36.15,6.55,0,9.29,9.79,6.48,14.76-1.8,3.24-5.4,2.95-4.68-.43,1.37-6.34,2.45-11.3-1.3-11.3-7.34,0-18.43,18-18.43,31.9,0,20.23,15.12,11.88,25.85-5.47.72-1.15,1.8-1.08,1.51.07-.5,1.8-5.18,10.73-8.93,14.47-9.43,9.43-23.33,7.42-23.33-7.85Z"/>
  <path class="cls-1" d="M30.61,127.88c.14-8.86,8.42-18.22,11.52-18.22,1.73,0,4.75,1.37,6.05,3.6.22.36-.43.65-.86.36-.43-.29-1.3-.79-2.16-.79-5.26,0-9.58,10.51-10.37,14.91-.79,4.1-.07,5.69,1.08,5.69,4.25,0,8.78-10.44,9.43-14.26.22-1.44.29-2.59-.14-3.74-.29-.79,1.08-.86,1.94-.14,1.01.86,1.44,2.09,1.3,3.6-.65,8.86-7.85,16.92-12.46,16.92-2.38,0-5.4-1.87-5.33-7.92Z"/>
  <path class="cls-1" d="M69.42,136.16c-4.25-2.09-5.26-6.84-2.66-16.71-3.74,7.71-10.08,15.7-11.95,15.7-1.01,0-4.25-1.22-4.25-4.1,0-5.83,6.34-17.86,6.7-22.11,1.3.36,2.66.86,2.66,2.66,0,3.38-8.93,20.81-5.47,20.81,2.38,0,13.39-20.23,14.26-23.11,2.66.14,4.03,1.94,4.03,2.88,0,1.37-1.8,4.54-3.31,11.09-2.02,8.71-.65,10.15.72,11.3.72.65,1.22,2.52-.72,1.58Z"/>
  <path class="cls-1" d="M101.39,130.68c-.65,1.37-3.53,6.91-8.14,6.91-13.9,0,3.17-26.43.43-26.43-3.31,0-14.62,24.05-16.85,24.05-7.92,0,4.61-22.32,3.24-26.14,2.02.14,4.1,1.8,3.82,3.89-.43,3.46-5.62,12.31-6.84,18.65,5.04-8.57,12.6-22.97,17.21-22.97,1.22,0,3.6,1.08,3.6,3.53,0,4.75-11.52,22.9-3.17,22.9,2.81,0,5.47-3.31,6.62-5.04.29-.43.5-.22.07.65Z"/>
  <path class="cls-1" d="M118.74,106.71c-3.17,0-5.62.5-7.92,1.01-4.54,12.03-8.93,26.86-4.1,32.91.29.36.29,1.15-.94.94-1.66-.29-5.11-2.88-5.11-6.19,0-8.35,2.16-16.56,5.83-26.86-.5.07-1.08.07-1.66.07-2.23,0-3.89-3.02-4.18-4.18-.14-.58.36-.5,1.08-.07,1.01.65,2.95.94,4.61.94h1.3c1.01-2.81,2.16-5.69,3.31-8.78.65-1.73,3.89,1.22,3.1,3.1-.72,1.66-1.44,3.53-2.23,5.47,2.66-.14,5.04-.29,6.48,0,1.01.14.94,1.66.43,1.66Z"/>
  <path class="cls-1" d="M135.3,105.7c-10.51,25.49-5.4,28.8-5.4,30.39,0,.58-.5.79-1.15.79-5.33,0-3.96-10.8-1.73-17.14-5.04,9.86-9.94,15.34-12.1,15.34s-4.75-2.02-4.75-7.06c0-7.63,7.56-17.14,12.39-17.14,2.02,0,3.89,1.3,5.18,2.66,1.22-2.45,2.3-4.9,3.31-7.27,3.46-8.5,6.41-15.84,5.62-17.93,5.98.29,4.25,3.74-1.37,17.35ZM126.66,115.56c-.5-.5-1.3-.86-2.66-.86-5.47,0-9.36,9.94-10.15,15.05-.29,1.8.29,2.38,1.08,2.38,1.58,0,7.06-7.63,11.74-16.56Z"/>
  <path class="cls-1" d="M134.72,127.88c.14-8.86,8.42-18.22,11.52-18.22,1.73,0,4.75,1.37,6.05,3.6.22.36-.43.65-.86.36-.43-.29-1.3-.79-2.16-.79-5.26,0-9.58,10.51-10.37,14.91-.79,4.1-.07,5.69,1.08,5.69,4.25,0,8.79-10.44,9.43-14.26.22-1.44.29-2.59-.14-3.74-.29-.79,1.08-.86,1.94-.14,1.01.86,1.44,2.09,1.3,3.6-.65,8.86-7.85,16.92-12.46,16.92-2.38,0-5.4-1.87-5.33-7.92Z"/>
  <path class="cls-1" d="M193.19,120.46c-1.01,1.44-3.6,3.74-5.04,3.74-1.94,0-3.96-1.3-5.33-3.24-2.59,6.05-6.05,12.75-7.06,13.54-.65.5-3.67.72-5.11-.58-1.22-1.08-2.38-4.03-2.16-8.14-2.66,4.46-7.63,10.08-9.07,10.08s-5.04-.5-5.04-4.03,5.54-17.35,6.05-20.81c.14-1.01,4.1,1.44,4.1,2.95s-8.28,19.44-6.05,19.44c1.44,0,7.49-7.78,10.15-14.04.36-.86.79-2.02,1.3-2.09.79-.14,2.95.36,2.81,1.8-.65,5.47-2.02,13.25.22,13.25.94,0,4.82-6.12,7.63-13.68.14-.43.43-.86.65-1.22,0-.22-.07-.43-.07-.65-.22-1.87.72-6.41,1.08-7.42.36-1.15,3.67-.36,3.67,2.23,0,1.15-.72,3.53-1.87,6.26,1.01,2.45,2.81,3.38,4.75,3.38,1.66,0,3.38-.65,3.96-1.01.58-.36.79-.36.43.22Z"/>
  <path class="cls-1" d="M217.23,130.68c-.65,1.37-3.53,6.91-8.14,6.91-13.9,0,3.17-26.43.43-26.43-3.31,0-14.62,24.05-16.85,24.05-7.92,0,4.61-22.32,3.24-26.14,2.02.14,4.1,1.8,3.82,3.89-.43,3.46-5.62,12.31-6.84,18.65,5.04-8.57,12.6-22.97,17.21-22.97,1.22,0,3.6,1.08,3.6,3.53,0,4.75-11.52,22.9-3.17,22.9,2.81,0,5.47-3.31,6.62-5.04.29-.43.5-.22.07.65Z"/>
  <path class="cls-1" d="M228.17,128.74c0-14.19,12.96-36.15,22.83-36.15,6.55,0,9.29,9.79,6.48,14.76-1.8,3.24-5.4,2.95-4.68-.43,1.37-6.34,2.45-11.3-1.3-11.3-7.34,0-18.43,18-18.43,31.9,0,20.23,15.12,11.88,25.85-5.47.72-1.15,1.8-1.08,1.51.07-.5,1.8-5.18,10.73-8.93,14.47-9.43,9.43-23.33,7.42-23.33-7.85Z"/>
  <path class="cls-1" d="M282.54,139.61c-.65.79-1.87,1.44-3.31,1.44-9.07,0-8.71-12.02-3.17-28.73-9.65,10.44-11.88,21.53-13.46,21.53s-2.66-.43-3.82-1.22c-1.73-1.15,5.54-29.74,12.17-46.23,1.37.29,3.17,1.66,2.38,4.03-3.02,8.93-7.27,19.37-10.73,38.67,2.3-5.69,10.51-20.09,14.33-20.09,2.09,0,3.96.94,2.81,3.6-4.25,10.01-6.91,26.5,2.16,26.5.94,0,1.01,0,.65.5Z"/>
  <path class="cls-1" d="M301.18,135.65c0,.79-1.58.72-1.94.72-1.08,0-3.53-1.87-3.53-5.26,0-2.74.5-5.26,1.37-8.06-2.74,5.54-6.48,11.74-10.08,11.74-1.15,0-4.68-1.01-4.68-4.9,0-7.7,9.15-19.37,14.76-19.37,1.51,0,2.23,1.15,3.31,2.38.43-1.73.79-3.89,1.44-3.89,1.37,0,3.02,1.22,3.02,2.67s-3.53,6.91-4.97,14.04c-1.58,7.99,1.3,9.14,1.3,9.94ZM299.31,114.63c-.79-.5-1.8-.94-2.38-.94-2.95,0-10.3,10.87-10.8,16.2-.14,1.58.22,2.3.86,2.3,1.51,0,9.07-12.17,12.31-17.57Z"/>
  <path class="cls-1" d="M324.08,125.5c-2.88,6.55-6.91,12.02-12.53,12.02-5.33,0-6.48-5.76-5.83-13.32,1.15-12.75,11.59-37.3,16.78-37.3,2.45,0,4.46,1.58,4.46,3.96,0,7.56-7.92,19.87-16.42,29.09-1.37,8.86-1.15,14.91,1.66,14.91,3.89,0,7.85-5.9,12.03-12.1.86-1.3,1.8-1.73-.14,2.74ZM311.26,116.14c9.43-10.73,12.96-26.14,11.52-26.14-2.59,0-9.43,17.79-11.52,26.14Z"/>
  <path class="cls-1" d="M340.85,125.5c-2.88,6.55-6.91,12.02-12.53,12.02s-6.48-5.76-5.83-13.32c1.15-12.75,11.59-37.3,16.78-37.3,2.45,0,4.46,1.58,4.46,3.96,0,7.56-7.92,19.87-16.42,29.09-1.37,8.86-1.15,14.91,1.66,14.91,3.89,0,7.85-5.9,12.03-12.1.86-1.3,1.8-1.73-.14,2.74ZM328.04,116.14c9.43-10.73,12.96-26.14,11.52-26.14-2.59,0-9.43,17.79-11.52,26.14Z"/>
  <path class="cls-1" d="M363.24,122.48c-1.08,4.03-7.99,13.97-15.48,13.97-3.74,0-8.28-2.52-7.99-9.5.36-8.42,7.63-17.93,11.3-18.07,2.02-.07,4.97,1.37,4.97,4.68,0,3.82-4.75,8.57-8.64,8.57-1.01,0-2.02-.36-2.88-.86-.43,1.22-.72,2.45-.86,3.46-.5,3.38-.07,8.14,4.82,8.14,5.4,0,10.8-6.34,13.25-9.94.94-1.44,1.94-2.09,1.51-.43ZM345.32,119.16c.14.29.43.5,1.08.5,2.45,0,5.26-3.02,5.76-5.76.22-1.15-.07-2.16-1.01-2.16-1.8,0-4.18,3.6-5.83,7.42Z"/>
  <path class="cls-1" d="M387.65,130.68c-.65,1.37-3.53,6.91-8.14,6.91-13.9,0,3.17-26.43.43-26.43-3.31,0-14.62,24.05-16.85,24.05-7.92,0,4.61-22.32,3.24-26.14,2.02.14,4.1,1.8,3.82,3.89-.43,3.46-5.62,12.31-6.84,18.65,5.04-8.57,12.6-22.97,17.21-22.97,1.22,0,3.6,1.08,3.6,3.53,0,4.75-11.52,22.9-3.17,22.9,2.81,0,5.47-3.31,6.62-5.04.29-.43.5-.22.07.65Z"/>
  <path class="cls-1" d="M404.36,130.9c-.29,1.8-.65,3.6-.94,5.33,4.61-.43,1.3,1.37-.5,2.23-3.17,15.48-7.63,27.15-16.71,27.15-3.67,0-5.91-2.23-5.76-7.2.22-7.42,7.2-18.36,18.87-21.46,1.37-5.83,2.3-11.52,3.1-15.62-3.82,6.12-8.28,12.67-11.16,12.67-1.51,0-4.9-1.3-5.04-3.6-.43-6.34,6.98-19.8,11.45-19.8,2.09,0,4.39,1.22,6.19,2.81.58-3.24.86-4.1,1.58-4.1,2.23,0,3.46.5,2.88,2.81-.72,2.88-3.02,13.39-3.96,18.79ZM398.52,140.41c-8.78,4.75-16.42,13.97-16.06,20.45.07,1.15.5,2.52,2.52,2.52,6.41,0,10.66-11.3,13.54-22.97ZM402.48,115.13c-.94-.65-2.23-1.22-4.1-1.22-3.53,0-7.56,10.95-8.35,13.32s-.79,4.54.22,4.54c1.58,0,8.14-9.5,12.24-16.63Z"/>
  <path class="cls-1" d="M433.95,122.48c-1.08,4.03-7.99,13.97-15.48,13.97-3.74,0-8.28-2.52-7.99-9.5.36-8.42,7.63-17.93,11.3-18.07,2.02-.07,4.97,1.37,4.97,4.68,0,3.82-4.75,8.57-8.64,8.57-1.01,0-2.02-.36-2.88-.86-.43,1.22-.72,2.45-.86,3.46-.5,3.38-.07,8.14,4.82,8.14,5.4,0,10.8-6.34,13.25-9.94.94-1.44,1.94-2.09,1.51-.43ZM416.02,119.16c.14.29.43.5,1.08.5,2.45,0,5.26-3.02,5.76-5.76.22-1.15-.07-2.16-1.01-2.16-1.8,0-4.18,3.6-5.83,7.42Z"/>
  <path class="cls-1" d="M454.47,120.32c-3.24,1.3-6.55,2.88-9.58,4.46,1.15.79,1.94,1.87,1.94,3.17,0,5.4-7.78,11.02-13.39,11.02-2.3,0-4.46-1.15-4.46-3.89,0-2.16,3.46-5.54,9-9-2.74-1.22-5.54-2.95-5.54-6.55,0-5.18,9.36-9.94,14.18-9.94,3.31,0,2.23,2.59,1.73,3.67-.22.43-.65.5-1.08.43-3.6-.72-11.95,2.66-11.95,5.9,0,1.51,4.03,2.38,7.34,3.89,3.46-1.73,7.49-3.46,11.81-4.9,1.73-.58.79,1.37,0,1.73ZM440.57,127.08c-4.9,2.95-8.42,5.83-8.42,7.85,0,.5.43,1.01,1.8,1.01,3.74,0,9.58-3.74,9.58-6.77,0-.86-1.22-1.44-2.95-2.09Z"/>
</svg>