<?xml version="1.0" encoding="UTF-8"?>
<svg id="intro" xmlns="http://www.w3.org/2000/svg" viewBox="0 0 393.5 59.86">
  <defs>
    <style>
      .cls-1 {
        fill: #1e896f;
      }
    </style>
  </defs>
  <path class="cls-1" d="M62.89,52.78c-1.82,0-3.16-.69-4.1-2.11-3.03-4.58-1.02-15.62,2.4-23.69.52-1.2.53-2.2.02-2.97-.56-.86-1.73-1.33-3.29-1.33-3.51,0-9.79,10.2-13.1,16.76,2.55-12.96,5.44-21.65,7.9-28.72.56.01.9-.06,1.15-.29.3-.28.3-.66.3-.79,0-.56-.1-1.33-.36-2.04.34-.97.67-1.92.98-2.84.35-1.05.28-2.04-.2-2.88-.61-1.06-1.71-1.62-2.55-1.8l-.41-.09-.16.39c-.64,1.59-1.32,3.4-2.01,5.34-11.48.38-28.86,3.85-37.47,5.57-2.22.44-3.83.77-4.56.88-2.2.32-3.47-.44-4.48-1.04-.72-.43-1.41-.84-2.13-.5-1.12.5-1.02,2.94-.28,4.9,1.01,2.69,2.92,3.9,5.09,3.24.67-.2,1.52-.47,2.53-.79,3.25-1.03,8.11-2.56,13.67-3.96.04.85-.16,2.4-1.27,6.22-2.11,7.28-6.01,21.89-7.29,30.52-.63,4.09.41,5.44,2.31,6.29.34.15.64.21.91.21.39,0,.7-.12.92-.25.77-.45,1.29-1.5,1.4-2.81,1.11-10.72,3.62-18.95,7.08-30.34l1.09-3.58c.74-2.45,1.67-5.5-.78-6.89-.18-.1-.37-.19-.56-.27,5.7-1.29,10.71-2.08,15.25-2.4,3.08-.24,5.3-.3,6.95-.28-5.1,15.3-10.3,35.48-8.36,36.77,1.18.81,2.28,1.31,4.1,1.31.9,0,1.48-1.28,2.75-4.1,1.69-3.74,4.43-9.77,9.5-15.8-3.81,12.21-4.28,20.42-1.39,24.42,1.29,1.78,3.23,2.69,5.77,2.69,1.46,0,2.88-.62,3.7-1.62l.02-.03c.18-.26.41-.58.23-.93-.19-.37-.56-.37-1.28-.37Z"/>
  <path class="cls-1" d="M87.33,35.23c-.69-.31-1.53.69-2.1,1.57-1.1,1.62-6.91,9.72-12.84,9.72-1.42,0-2.52-.44-3.26-1.3-1.54-1.79-1.26-4.98-1.07-6.27.13-.89.36-1.86.66-2.81.7.34,1.61.65,2.59.65,4.19,0,9.14-4.92,9.14-9.07,0-1.44-.52-2.69-1.49-3.63-1.24-1.2-2.88-1.6-4-1.55-3.85.15-11.41,9.75-11.79,18.55-.13,3.15.71,5.75,2.41,7.53,1.52,1.59,3.74,2.5,6.08,2.5,7.88,0,14.85-10.18,15.96-14.34h0c.09-.35.33-1.27-.31-1.55ZM69.81,33.26c1.79-4.04,3.93-6.83,5.25-6.83.21,0,.31.08.37.15.21.25.27.79.15,1.42-.48,2.6-3.19,5.35-5.27,5.35-.26,0-.41-.04-.5-.09Z"/>
  <path class="cls-1" d="M147.7,29.43c.52-1.44.87-2.4.87-3.07,0-1.31-1.71-3.23-4.51-3.38l-.39-.02-.11.38c-1.06,3.55-11.89,22.55-13.78,22.76-.12,0-.15-.04-.17-.07-.77-1.12,1.73-7.54,3.39-11.79,1.48-3.79,2.75-7.06,2.75-8.45,0-2.3-1.97-2.85-3.03-3.15l-.58-.16-.05.6c-.15,1.75-1.42,5.05-2.77,8.54-.42,1.08-.84,2.19-1.26,3.31-.46.1-.94.46-1.3,1.03-6.91,11.18-15.5,18.27-20.42,16.88-2.95-.84-4.51-4.69-4.51-11.14,0-13.86,11.12-31.4,17.93-31.4.7,0,1.19.19,1.51.59,1.17,1.45.3,5.44-.7,10.11-.39,1.85.39,2.85,1.25,3.17,1.24.46,3.14-.21,4.35-2.39,1.72-3.05,1.49-7.98-.55-11.47-1.52-2.6-3.78-4.03-6.36-4.03-10.59,0-23.33,22.51-23.33,36.65,0,6.61,2.53,11.3,7.14,13.21,1.39.58,2.89.85,4.44.85,4.22,0,8.82-2.07,12.61-5.86,1.76-1.76,3.73-4.66,5.39-7.45-.08.55-.12,1.07-.12,1.55,0,3.19,3.44,4.6,4.75,4.6,2.02,0,7.06-6.43,10.62-12.63-1.43,7.47-.24,11.61,3.78,13.58h0c.46.22.82.31,1.1.31.42,0,.67-.19.81-.4.45-.67-.07-1.8-.65-2.32-1.14-.96-2.56-2.15-.55-10.81.85-3.7,1.78-6.26,2.46-8.13Z"/>
  <path class="cls-1" d="M167.51,25.93c-4.63,0-9.18,5.41-12.07,9.72,1.3-3.91,2.92-8.31,4.4-12.29,1.15-3.15,2.31-6.12,3.33-8.73,2.05-5.24,3.54-9.03,3.54-10.74s-1.6-3.5-3.99-3.67l-.45-.03-.08.45c-.33,1.89-1.23,4.31-2.6,7.98-1.27,3.4-3.01,8.06-5.09,14.5l-.37,1.17c-2.13,6.68-5.7,17.86-5.7,21.8,0,2.42,2.71,2.81,4.17,3.02l.4.06.14-.38c2.35-6.37,10.76-19.12,13.86-20.23.15-.05.34-.1.46-.03.38.23.38,2.34-1.99,7.41-4.97,2.51-10.99,8.14-10.99,10.31,0,1.22.91,3.88,3.6,3.88,5.38,0,14.4-12.35,14.4-19.73,0-3.69-2.7-4.46-4.96-4.46ZM162.43,41.47c-2.22,3.61-4.1,5.48-4.93,5.48-.09,0-.29-.15-.29-.28.08-.55,2.33-2.96,5.22-5.2Z"/>
  <path class="cls-1" d="M196,32.29c-3.91,1.3-7.93,2.97-11.66,4.82-.94-.42-1.91-.78-2.85-1.13-1.87-.7-3.99-1.49-3.99-2.21s.51-1.47,1.49-2.27c2.53-2.08,7.42-3.63,9.88-3.14.74.12,1.32-.13,1.62-.71.45-.96.97-2.35.32-3.37-.43-.67-1.27-1.01-2.5-1.01-4.84,0-14.69,4.83-14.69,10.44,0,3.5,2.41,5.34,5.01,6.62-5.39,3.47-8.46,6.71-8.46,8.93,0,2.67,1.95,4.39,4.96,4.39,5.81,0,13.89-5.8,13.89-11.52,0-1.15-.52-2.2-1.52-3.08,3.13-1.62,6.1-2.99,8.84-4.08h.02c.67-.31,1.51-1.49,1.2-2.26-.1-.25-.44-.78-1.57-.41ZM175.64,49.62c-.63,0-1.3-.13-1.3-.51,0-.92,1.04-3.08,7.98-7.3.95.36,2.4.95,2.4,1.54,0,2.58-5.34,6.27-9.08,6.27Z"/>
  <path class="cls-1" d="M244.69,52.31c-.14-.06-.5-.17-.88.29-.75.89-1.57,1.62-3.93,1.62-7.21-.07-17.33-13.3-21.45-22.76,19.19-1.9,23.25-10.11,23.25-16.71,0-2.58-.88-4.74-2.63-6.43-2.45-2.37-6.55-3.65-11.28-3.5-5.86.21-10.78,2.08-15.13,3.73-1.83.7-3.56,1.35-5.23,1.84l-.39.11.04.41c.08.93.57,2.14,1.72,2.75.88.47,2.46.75,4.99-.62l.42-.22c-1.14,5.1-2.52,9.42-3.97,13.98-2.06,6.46-4.19,13.14-6.03,23.09-.14.84.15,1.61.84,2.18.91.75,2.4,1.02,3.47.62.71-.27,1.17-.79,1.29-1.48,1.04-6.2,2.4-12.15,4.24-18.61,5.71,15.63,15.89,27.26,23.85,27.26.24,0,.47-.01.7-.03,4.52-.4,6.22-4.54,6.5-6.1.05-.29.21-1.16-.35-1.42ZM217.66,11.31c6.73-2.4,14.15-2.51,17.47-.22,1.29.89,1.94,2.1,1.94,3.6,0,6.44-11.14,11.9-21.9,13.91.44-1.48.88-2.89,1.32-4.28.41-1.31.8-2.58,1.19-3.86,1.71-5.46,1.78-6.87,0-9.14Z"/>
  <path class="cls-1" d="M257.1,22.97l-.39-.02-.11.38c-1.06,3.55-11.89,22.55-13.78,22.76-.12,0-.15-.04-.17-.07-.77-1.12,1.73-7.54,3.39-11.79,1.48-3.79,2.75-7.06,2.75-8.45,0-2.3-1.97-2.85-3.03-3.15l-.58-.16-.05.6c-.15,1.75-1.42,5.05-2.77,8.54-1.84,4.77-3.93,10.19-3.93,13.61,0,3.19,3.44,4.6,4.75,4.6,2.02,0,7.06-6.43,10.62-12.63-1.43,7.47-.24,11.61,3.78,13.58h0c.46.22.82.31,1.1.31.42,0,.67-.19.81-.4.45-.67-.07-1.8-.65-2.32-1.14-.96-2.56-2.15-.55-10.81.85-3.7,1.78-6.26,2.46-8.13.52-1.44.87-2.4.87-3.07,0-1.31-1.71-3.23-4.51-3.38Z"/>
  <path class="cls-1" d="M290.21,43.57c-.08-.05-.52-.26-.94.36-.75,1.13-3.43,4.82-6.21,4.82-1.01,0-1.7-.29-2.09-.88-1.5-2.24,1.07-8.48,3.14-13.5,1.41-3.42,2.63-6.37,2.63-8.02,0-2.81-2.72-4.03-4.1-4.03-4.27,0-10.22,10.34-15.47,19.47-.07.12-.14.25-.21.37.85-2.47,2-5.09,3.05-7.49,1.37-3.12,2.55-5.82,2.76-7.46.13-.95-.14-1.87-.79-2.67-.82-1.01-2.15-1.69-3.49-1.79l-.77-.05.26.72c.45,1.24-1.02,5.39-2.44,9.41-2.3,6.51-4.68,13.24-2.79,15.92.53.76,1.36,1.14,2.46,1.14,1.18,0,2.97-2.88,7.42-10.5,3.02-5.19,7.53-12.92,9.24-13.51-.05.78-1.02,3.13-1.88,5.23-2.59,6.27-6.13,14.86-3.39,18.96.98,1.46,2.67,2.2,5.04,2.2,4.8,0,7.78-5.5,8.59-7.19.15-.29.58-1.17,0-1.51Z"/>
  <path class="cls-1" d="M368.73,29.43c.52-1.44.87-2.4.87-3.07,0-1.31-1.71-3.23-4.51-3.38l-.39-.02-.11.38c-1.06,3.55-11.89,22.55-13.78,22.76-.12,0-.15-.04-.17-.07-.77-1.12,1.73-7.54,3.39-11.79,1.48-3.79,2.75-7.06,2.75-8.45,0-2.3-1.97-2.85-3.03-3.15l-.58-.16-.05.6c-.15,1.75-1.42,5.05-2.77,8.54-.58,1.51-1.18,3.08-1.74,4.63-.1.12-.2.26-.3.41l-.07.11c-4.08,6.05-7.94,11.77-11.54,11.77-.38,0-.68-.14-.94-.45-.74-.87-1.76-3.8-.24-13.73,8.2-8.93,16.45-21.42,16.45-29.32,0-2.54-2.13-4.46-4.96-4.46-5.52,0-15.87,24.22-17.23,37.33-6.67,10.04-14.54,16.24-19.16,14.93-2.95-.84-4.51-4.69-4.51-11.14,0-13.86,11.12-31.4,17.93-31.4.7,0,1.19.19,1.51.59,1.17,1.45.3,5.44-.7,10.11-.39,1.85.39,2.85,1.25,3.17,1.24.46,3.14-.21,4.35-2.39,1.72-3.05,1.49-7.98-.55-11.47-1.52-2.6-3.78-4.03-6.36-4.03-10.59,0-23.33,22.51-23.33,36.65,0,6.61,2.53,11.3,7.14,13.21,1.39.58,2.89.85,4.44.85,4.22,0,8.82-2.07,12.61-5.86,1.71-1.71,3.62-4.5,5.25-7.21.22,3.01.94,5.19,2.21,6.57,1.05,1.15,2.47,1.73,4.21,1.73,3.87,0,7.36-2.48,10.4-7.35,0,.12-.03.26-.03.37,0,3.19,3.44,4.6,4.75,4.6,2.02,0,7.06-6.43,10.62-12.63-1.43,7.47-.24,11.61,3.78,13.58h0c.46.22.82.31,1.1.31.42,0,.67-.19.81-.4.45-.67-.07-1.8-.65-2.32-1.14-.96-2.56-2.15-.56-10.81.85-3.7,1.78-6.26,2.46-8.13ZM336.84,28.24c2.63-9.17,8.25-22.62,10.25-23.51.32,1.91-2.69,13.93-10.25,23.51Z"/>
  <path class="cls-1" d="M388.54,25.93c-4.63,0-9.18,5.41-12.07,9.72,1.3-3.91,2.92-8.31,4.4-12.29,1.15-3.15,2.31-6.12,3.33-8.73,2.05-5.24,3.54-9.03,3.54-10.74s-1.6-3.5-3.99-3.67l-.45-.03-.08.45c-.33,1.89-1.23,4.31-2.6,7.98-1.27,3.4-3.01,8.06-5.09,14.5l-.37,1.17c-2.13,6.68-5.7,17.86-5.7,21.8,0,2.42,2.71,2.81,4.17,3.02l.4.06.14-.38c2.35-6.37,10.76-19.12,13.86-20.23.15-.05.34-.1.46-.03.38.23.38,2.34-1.99,7.41-4.97,2.51-10.99,8.14-10.99,10.31,0,1.22.91,3.88,3.6,3.88,5.38,0,14.4-12.35,14.4-19.73,0-3.69-2.7-4.46-4.96-4.46ZM383.46,41.47c-2.22,3.61-4.1,5.48-4.93,5.48-.09,0-.29-.15-.29-.28.08-.55,2.33-2.96,5.22-5.2Z"/>
</svg>